<?xml version="1.0" encoding="utf-8"?>
<!-- Generator: Adobe Illustrator 15.0.0, SVG Export Plug-In . SVG Version: 6.00 Build 0)  -->
<!DOCTYPE svg PUBLIC "-//W3C//DTD SVG 1.1//EN" "http://www.w3.org/Graphics/SVG/1.1/DTD/svg11.dtd">
<svg version="1.1" xmlns="http://www.w3.org/2000/svg" xmlns:xlink="http://www.w3.org/1999/xlink" x="0px" y="0px"
	 width="841.89px" height="595.28px" viewBox="0 0 841.89 595.28" enable-background="new 0 0 841.89 595.28" xml:space="preserve">
<g id="Layer_1">
	<path fill-rule="evenodd" clip-rule="evenodd" d="M277.764,193.581c-7.017,0.324-22.179,0.809-28.456,0
		c-1.024-6.277-1.345-11.906-1.169-16.883c0.065-1.845,1.245-3.562,1.169-4.988c-0.067-1.267-1.907-2.527-1.169-4.221
		c3.118-7.155,28.456-6.572,30.794,0c0.595,1.672-1.142,3.296-1.169,4.221c-0.033,1.126,1.024,2.659,1.169,3.837
		C279.618,181.138,279.315,187.8,277.764,193.581z"/>
	<polygon fill-rule="evenodd" clip-rule="evenodd" fill="#FFFFFF" points="275.445,167.69 253.851,192.058 253.606,191.847 
		275.2,167.48 	"/>
	<polygon fill-rule="evenodd" clip-rule="evenodd" fill="#FFFFFF" points="268.406,166.238 252.903,183.732 252.658,183.521 
		268.161,166.027 	"/>
	<polygon fill-rule="evenodd" clip-rule="evenodd" fill="#FFFFFF" points="260.624,165.419 251.783,175.396 251.538,175.185 
		260.379,165.208 	"/>
	<polygon fill-rule="evenodd" clip-rule="evenodd" fill="#FFFFFF" points="276.788,174.736 261.532,192.44 261.781,192.647 
		277.036,174.943 	"/>
	<polygon fill-rule="evenodd" clip-rule="evenodd" fill="#FFFFFF" points="277.168,183.715 269.929,192.162 270.177,192.37 
		277.415,183.922 	"/>
	<g>
		<g>
			<path d="M235.993,171.623c-1.234,0.647-2.509,1.49-2.262,3.052c0.268,1.69,1.658,2.867,0.138,4.452
				c-0.196,0.204,0.278,0.19,0.387,0.077c0.919-0.959,0.998-1.9,0.524-3.114c-0.229-0.586-0.501-1.137-0.601-1.765
				c-0.204-1.287,1.157-2.061,2.113-2.562C236.58,171.612,236.148,171.541,235.993,171.623L235.993,171.623z"/>
		</g>
	</g>
	<g>
		<g>
			<path d="M227.075,171.623c-1.234,0.647-2.509,1.49-2.262,3.052c0.268,1.69,1.658,2.867,0.137,4.452
				c-0.196,0.204,0.278,0.19,0.387,0.077c0.92-0.959,0.998-1.9,0.524-3.114c-0.229-0.586-0.501-1.137-0.601-1.765
				c-0.204-1.287,1.157-2.061,2.113-2.562C227.662,171.612,227.23,171.541,227.075,171.623L227.075,171.623z"/>
		</g>
	</g>
	<g>
		<g>
			<path d="M232.07,166.578c-1.907,1.053-3.319,2.364-2.885,4.685c0.512,2.733,2.877,5.004,0.729,7.685
				c-0.134,0.167,0.353,0.129,0.449,0.009c3.501-4.368-4.375-8.714,2.006-12.239C232.654,166.56,232.225,166.492,232.07,166.578
				L232.07,166.578z"/>
		</g>
	</g>
</g>
<g id="Layer_2">
	<path fill-rule="evenodd" clip-rule="evenodd" d="M362.319,164.5"/>
	<polygon fill="#0B0A0A" points="223.899,180.34 236.102,180.34 233.199,193.708 226.806,193.708 	"/>
	<g>
		<g>
			<path d="M217.243,171.785c-1.234,0.647-2.509,1.489-2.262,3.051c0.268,1.69,1.658,2.867,0.138,4.452
				c-0.196,0.204,0.278,0.19,0.387,0.077c0.919-0.959,0.998-1.9,0.524-3.114c-0.229-0.586-0.501-1.137-0.601-1.765
				c-0.204-1.287,1.157-2.061,2.113-2.562C217.83,171.774,217.398,171.703,217.243,171.785L217.243,171.785z"/>
		</g>
	</g>
	<g>
		<g>
			<path d="M208.325,171.785c-1.234,0.647-2.509,1.489-2.262,3.051c0.268,1.69,1.658,2.867,0.137,4.452
				c-0.196,0.204,0.278,0.19,0.387,0.077c0.92-0.959,0.998-1.9,0.524-3.114c-0.229-0.586-0.501-1.137-0.601-1.765
				c-0.204-1.287,1.157-2.061,2.113-2.562C208.912,171.774,208.48,171.703,208.325,171.785L208.325,171.785z"/>
		</g>
	</g>
	<g>
		<g>
			<path d="M213.32,166.739c-1.907,1.054-3.319,2.365-2.885,4.686c0.512,2.733,2.877,5.004,0.729,7.685
				c-0.134,0.167,0.353,0.129,0.449,0.009c3.501-4.368-4.375-8.714,2.006-12.239C213.904,166.722,213.475,166.654,213.32,166.739
				L213.32,166.739z"/>
		</g>
	</g>
	<polygon fill="#0B0A0A" points="205.149,180.502 217.352,180.502 214.449,193.87 208.056,193.87 	"/>
</g>
</svg>
