<?xml version="1.0" encoding="UTF-8" standalone="no"?>
<!-- Created with Inkscape (http://www.inkscape.org/) -->

<svg
   xmlns:dc="http://purl.org/dc/elements/1.1/"
   xmlns:cc="http://creativecommons.org/ns#"
   xmlns:rdf="http://www.w3.org/1999/02/22-rdf-syntax-ns#"
   xmlns:svg="http://www.w3.org/2000/svg"
   xmlns="http://www.w3.org/2000/svg"
   xmlns:sodipodi="http://sodipodi.sourceforge.net/DTD/sodipodi-0.dtd"
   xmlns:inkscape="http://www.inkscape.org/namespaces/inkscape"
   width="100"
   height="100"
   id="svg3979"
   version="1.1"
   inkscape:version="0.48.4 r9939"
   sodipodi:docname="New document 7">
  <defs
     id="defs3981" />
  <sodipodi:namedview
     id="base"
     pagecolor="#ffffff"
     bordercolor="#666666"
     borderopacity="1.0"
     inkscape:pageopacity="0.0"
     inkscape:pageshadow="2"
     inkscape:zoom="0.27283812"
     inkscape:cx="-244.48919"
     inkscape:cy="286.03389"
     inkscape:document-units="px"
     inkscape:current-layer="layer1"
     showgrid="false"
     inkscape:window-width="928"
     inkscape:window-height="598"
     inkscape:window-x="126"
     inkscape:window-y="58"
     inkscape:window-maximized="0" />
  <metadata
     id="metadata3984">
    <rdf:RDF>
      <cc:Work
         rdf:about="">
        <dc:format>image/svg+xml</dc:format>
        <dc:type
           rdf:resource="http://purl.org/dc/dcmitype/StillImage" />
        <dc:title></dc:title>
      </cc:Work>
    </rdf:RDF>
  </metadata>
  <g
     inkscape:label="Layer 1"
     inkscape:groupmode="layer"
     id="layer1"
     >
    <g
       id="g3933">
      <g
         id="g3935">
        <path
           inkscape:connector-curvature="0"
           d="m 217.243,171.785 c -1.234,0.647 -2.509,1.489 -2.262,3.051 0.268,1.69 1.658,2.867 0.138,4.452 -0.196,0.204 0.278,0.19 0.387,0.077 0.919,-0.959 0.998,-1.9 0.524,-3.114 -0.229,-0.586 -0.501,-1.137 -0.601,-1.765 -0.204,-1.287 1.157,-2.061 2.113,-2.562 0.288,-0.15 -0.144,-0.221 -0.299,-0.139 l 0,0 z"
           id="path3937" />
      </g>
    </g>
    <g
       id="g3939">
      <g
         id="g3941">
        <path
           inkscape:connector-curvature="0"
           d="m 208.325,171.785 c -1.234,0.647 -2.509,1.489 -2.262,3.051 0.268,1.69 1.658,2.867 0.137,4.452 -0.196,0.204 0.278,0.19 0.387,0.077 0.92,-0.959 0.998,-1.9 0.524,-3.114 -0.229,-0.586 -0.501,-1.137 -0.601,-1.765 -0.204,-1.287 1.157,-2.061 2.113,-2.562 0.289,-0.15 -0.143,-0.221 -0.298,-0.139 l 0,0 z"
           id="path3943" />
      </g>
    </g>
    <g
       id="g3945">
      <g
         id="g3947">
        <path
           inkscape:connector-curvature="0"
           d="m 213.32,166.739 c -1.907,1.054 -3.319,2.365 -2.885,4.686 0.512,2.733 2.877,5.004 0.729,7.685 -0.134,0.167 0.353,0.129 0.449,0.009 3.501,-4.368 -4.375,-8.714 2.006,-12.239 0.285,-0.158 -0.144,-0.226 -0.299,-0.141 l 0,0 z"
           id="path3949" />
      </g>
    </g>
    <polygon
       style="fill:#0b0a0a"
       points="205.149,180.502 217.352,180.502 214.449,193.87 208.056,193.87 "
       id="polygon3951" />
  </g>
</svg>
