<svg width="1000" height="500"><defs><radialGradient id="toastGradient"><stop offset="5%" stop-color="#C79637"></stop><stop offset="100%" stop-color="#EDD79D"></stop></radialGradient><linearGradient id="tableBottomGradient"><stop offset="95%" stop-color="#C9A533"></stop><stop offset="100%" stop-color="#A27D2D"></stop></linearGradient><linearGradient id="tableShadowGradient" x1="0" x2="0" y1="0" y2="1"><stop offset="0%" stop-color="#000" stop-opacity="0.3"></stop><stop offset="100%" stop-color="#000" stop-opacity="0"></stop></linearGradient></defs><g id="bigToast" transform="translate(291,91.5)"><rect class="bread" x="-48.49999999999999" y="-48.49999999999999" width="96.99999999999999" height="96.99999999999999" rx="3" ry="3"></rect><rect class="butter" x="-42.03333333333333" y="-42.03333333333333" width="84.06666666666666" height="84.06666666666666" rx="5" ry="5"></rect><line class="left" x1="-50.49999999999999" y1="48.49999999999999" x2="-38.375" y2="104.125"></line><line class="right" x1="50.49999999999999" y1="48.49999999999999" x2="38.375" y2="104.125"></line></g><g id="world" transform="translate(0,0)"><g id="table" transform="translate(0,200)"><rect class="top" x="0" y="1" width="291" height="13.625000000000004"></rect><rect class="bottom" x="0" y="14.625000000000004" width="242.5" height="62.500000000000014"></rect><rect class="leg" x="242.49999999999997" y="14.625000000000004" width="24.25" height="284.375"></rect><rect class="shadow" x="0" y="15.625000000000004" width="242.5" height="9.375"></rect><text class="info" x="227.49999999999997" y="189.0625">96cm</text></g><g id="floor" transform="translate(0,500)"><rect x="0" y="0" width="970" height="3"></rect></g><g id="ix"></g><g id="toast"><g class="toast safe visible last" rel="0: 0.96,0" transform="translate(291,200)"><g class="ix"><rect x="0" y="-4.375000000000001" width="679" height="4.375000000000001"></rect></g><g class="t" transform=""><rect x="-36.375" y="-4.375000000000001" width="72.75" height="4.375000000000001" rx="1" ry="1"></rect><line class="butter" x1="-33.949999999999996" y1="-4.375000000000001" x2="33.949999999999996" y2="-4.375000000000001"></line><circle class="marker" cx="-36.375" cy="-2.1875000000000004" r="0.5"></circle><circle class="marker" cx="36.375" cy="-2.1875000000000004" r="0.5"></circle><path class="arrow" d="M0,0l3.6374999999999997,-7.2749999999999995l3.6374999999999997,7.2749999999999995Z" transform="translate(-36.375,-7.000000000000002)"></path><path class="arrow" d="M0,0l3.6374999999999997,-7.2749999999999995l3.6374999999999997,7.2749999999999995Z" transform="translate(-23.28,-7.000000000000002)"></path><path class="arrow" d="M0,0l3.6374999999999997,-7.2749999999999995l3.6374999999999997,7.2749999999999995Z" transform="translate(-10.185000000000002,-7.000000000000002)"></path><path class="arrow" d="M0,0l3.6374999999999997,-7.2749999999999995l3.6374999999999997,7.2749999999999995Z" transform="translate(2.9099999999999966,-7.000000000000002)"></path><path class="arrow" d="M0,0l3.6374999999999997,-7.2749999999999995l3.6374999999999997,7.2749999999999995Z" transform="translate(16.004999999999995,-7.000000000000002)"></path><path class="arrow" d="M0,0l3.6374999999999997,-7.2749999999999995l3.6374999999999997,7.2749999999999995Z" transform="translate(29.099999999999994,-7.000000000000002)"></path></g></g></g><g class="angle" transform="translate(291,200)"><text x="0" y="0">0°</text></g></g><g id="axes" transform="translate(0,0)"><g class="x axis" transform="translate(0,0)"><g class="tick" transform="translate(0,0)" style="opacity: 1;"><line y2="-6" x2="0"></line><text y="-9" x="0" dy="0em" style="text-anchor: middle;">0.0</text></g><g class="tick" transform="translate(97,0)" style="opacity: 1;"><line y2="-6" x2="0"></line><text y="-9" x="0" dy="0em" style="text-anchor: middle;">0.2</text></g><g class="tick" transform="translate(194,0)" style="opacity: 1;"><line y2="-6" x2="0"></line><text y="-9" x="0" dy="0em" style="text-anchor: middle;">0.4</text></g><g class="tick" transform="translate(291,0)" style="opacity: 1;"><line y2="-6" x2="0"></line><text y="-9" x="0" dy="0em" style="text-anchor: middle;">0.6</text></g><g class="tick" transform="translate(388,0)" style="opacity: 1;"><line y2="-6" x2="0"></line><text y="-9" x="0" dy="0em" style="text-anchor: middle;">0.8</text></g><g class="tick" transform="translate(485,0)" style="opacity: 1;"><line y2="-6" x2="0"></line><text y="-9" x="0" dy="0em" style="text-anchor: middle;">1.0</text></g><g class="tick" transform="translate(582,0)" style="opacity: 1;"><line y2="-6" x2="0"></line><text y="-9" x="0" dy="0em" style="text-anchor: middle;">1.2</text></g><g class="tick" transform="translate(679,0)" style="opacity: 1;"><line y2="-6" x2="0"></line><text y="-9" x="0" dy="0em" style="text-anchor: middle;">1.4</text></g><g class="tick" transform="translate(776,0)" style="opacity: 1;"><line y2="-6" x2="0"></line><text y="-9" x="0" dy="0em" style="text-anchor: middle;">1.6</text></g><g class="tick" transform="translate(873,0)" style="opacity: 1;"><line y2="-6" x2="0"></line><text y="-9" x="0" dy="0em" style="text-anchor: middle;">1.8</text></g><g class="tick" transform="translate(970,0)" style="opacity: 1;"><line y2="-6" x2="0"></line><text y="-9" x="0" dy="0em" style="text-anchor: middle;">2.0</text></g><path class="domain" d="M0,-6V0H970V-6"></path></g><g class="y axis" transform="translate(970,0)"><g class="tick" transform="translate(0,500)" style="opacity: 1;"><line x2="6" y2="0"></line><text x="9" y="0" dy=".32em" style="text-anchor: start;">0.0</text></g><g class="tick" transform="translate(0,468.75)" style="opacity: 1;"><line x2="6" y2="0"></line><text x="9" y="0" dy=".32em" style="text-anchor: start;">0.1</text></g><g class="tick" transform="translate(0,437.5)" style="opacity: 1;"><line x2="6" y2="0"></line><text x="9" y="0" dy=".32em" style="text-anchor: start;">0.2</text></g><g class="tick" transform="translate(0,406.25)" style="opacity: 1;"><line x2="6" y2="0"></line><text x="9" y="0" dy=".32em" style="text-anchor: start;">0.3</text></g><g class="tick" transform="translate(0,375)" style="opacity: 1;"><line x2="6" y2="0"></line><text x="9" y="0" dy=".32em" style="text-anchor: start;">0.4</text></g><g class="tick" transform="translate(0,343.75)" style="opacity: 1;"><line x2="6" y2="0"></line><text x="9" y="0" dy=".32em" style="text-anchor: start;">0.5</text></g><g class="tick" transform="translate(0,312.5)" style="opacity: 1;"><line x2="6" y2="0"></line><text x="9" y="0" dy=".32em" style="text-anchor: start;">0.6</text></g><g class="tick" transform="translate(0,281.25)" style="opacity: 1;"><line x2="6" y2="0"></line><text x="9" y="0" dy=".32em" style="text-anchor: start;">0.7</text></g><g class="tick" transform="translate(0,249.99999999999994)" style="opacity: 1;"><line x2="6" y2="0"></line><text x="9" y="0" dy=".32em" style="text-anchor: start;">0.8</text></g><g class="tick" transform="translate(0,218.74999999999994)" style="opacity: 1;"><line x2="6" y2="0"></line><text x="9" y="0" dy=".32em" style="text-anchor: start;">0.9</text></g><path class="domain" d="M6,200H0V500H6"></path></g></g></svg>